<svg id="Layer_1" data-name="Layer 1" xmlns="http://www.w3.org/2000/svg" viewBox="0 0 605.02 545.45"><defs><style>.cls-1,.cls-10,.cls-11,.cls-12,.cls-13,.cls-14,.cls-15,.cls-16,.cls-17,.cls-2,.cls-3,.cls-4,.cls-5,.cls-6,.cls-7,.cls-8,.cls-9{fill:none;stroke:#82c7bc;stroke-miterlimit:10;}.cls-1{stroke-width:0.5px;}.cls-2{stroke-width:0.47px;}.cls-3{stroke-width:0.45px;}.cls-4{stroke-width:0.42px;}.cls-5{stroke-width:0.4px;}.cls-6{stroke-width:0.38px;}.cls-7{stroke-width:0.35px;}.cls-8{stroke-width:0.33px;}.cls-9{stroke-width:0.3px;}.cls-10{stroke-width:0.28px;}.cls-11{stroke-width:0.25px;}.cls-12{stroke-width:0.23px;}.cls-13{stroke-width:0.2px;}.cls-14{stroke-width:0.17px;}.cls-15{stroke-width:0.15px;}.cls-16{stroke-width:0.13px;}.cls-17{stroke-width:0.1px;}</style></defs><title>02</title><path class="cls-1" d="M485.75,333a6,6,0,0,1,.23,1.47c.24,4,1.07,8.09-3.33,9.83-11.09,4.4-21.78,8.69-32.19,13a6.81,6.81,0,0,1-2.88.72c-2.34-.12-5.23-1.8-7.42-2.62-2.34-.88-4.43-2.31-6.82-3.09a7.36,7.36,0,0,0-3.79-.5c-1.79.43-1.6,1.73-2.83,2.72-1.91,1.55-3-2.5-3.49-3.62l-4.38-9.55-9-19.62-.88-1.9c0-.1-.09-.2-.14-.3q-7.36-12.84-14.73-25.68a6,6,0,0,1-.73-1.63c-1.24-5.52,4.33-7,8.05-8.49,1.7-.67,3.95-1.18,5.37-2.35a3.1,3.1,0,0,0,1.19-2.24c0-.82-.21-1.61-.27-2.42a2.26,2.26,0,0,1,2.42-2.55,20.92,20.92,0,0,1,5.11.52,33.63,33.63,0,0,1,3.83,1c5.69,1.86,10.42,6,15.27,9.32a83.53,83.53,0,0,0,12.14,6.89q3.15,1.46,6.37,2.74c3.67,1.46,5.31,2.06,7.31,5.68q4.28,7.74,8.59,15.47l4.3,7.73c1,1.88,2.14,5.11,4.06,6.23a6.64,6.64,0,0,0,2.15.66c1.63.31,5.18.28,6.17,1.85A3.57,3.57,0,0,1,485.75,333Z" transform="translate(-137.18 -123.89)"/><path class="cls-2" d="M501.59,343.85a8.26,8.26,0,0,1,.31,2c.33,5.36,1.43,10.87-4.47,13.21-14.78,5.86-29.16,11.62-43.26,17.45a9,9,0,0,1-3.87,1c-3.15-.16-7-2.42-10-3.52-3.14-1.17-5.95-3.11-9.16-4.15a10,10,0,0,0-5.1-.68c-2.41.58-2.14,2.34-3.8,3.67-2.57,2.07-4-3.37-4.69-4.87l-5.89-12.83-12.11-26.37c-.39-.85-.79-1.7-1.18-2.56-.06-.14-.12-.27-.19-.4-6.52-11.55-13.16-23-19.8-34.51a7.88,7.88,0,0,1-1-2.2c-1.66-7.41,5.83-9.42,10.82-11.4,2.28-.9,5.31-1.59,7.22-3.16a4.16,4.16,0,0,0,1.6-3c0-1.1-.29-2.17-.37-3.26-.15-2.14,1.19-3.3,3.27-3.42a27.73,27.73,0,0,1,6.85.7,43.23,43.23,0,0,1,5.15,1.33c7.66,2.49,14,8,20.53,12.53a110.68,110.68,0,0,0,16.32,9.25c2.81,1.31,5.67,2.53,8.55,3.68,4.93,2,7.14,2.78,9.83,7.63q5.74,10.41,11.54,20.8,2.88,5.21,5.78,10.39c1.41,2.52,2.87,6.87,5.46,8.37a8.76,8.76,0,0,0,2.89.89c2.18.42,7,.38,8.28,2.49A3.75,3.75,0,0,1,501.59,343.85Z" transform="translate(-137.18 -123.89)"/><path class="cls-3" d="M517.44,354.71a10.77,10.77,0,0,1,.38,2.47c.41,6.74,1.8,13.66-5.61,16.6-18.46,7.32-36.54,14.56-54.34,21.92a11.48,11.48,0,0,1-4.86,1.21c-3.95-.2-8.83-3-12.53-4.42-4-1.47-7.47-3.9-11.5-5.2-2-.64-4.32-1.36-6.41-.86-3,.73-2.69,2.93-4.77,4.6-3.23,2.61-5-4.22-5.89-6.12l-7.4-16.1L389.3,335.68c-.49-1.07-1-2.13-1.47-3.21-.08-.17-.16-.34-.25-.5-8.18-14.51-16.53-28.92-24.86-43.35a9.73,9.73,0,0,1-1.24-2.75c-2.08-9.31,7.32-11.83,13.6-14.32,2.86-1.14,6.66-2,9.06-4a5.23,5.23,0,0,0,2-3.78c0-1.39-.36-2.72-.46-4.1-.19-2.69,1.49-4.14,4.1-4.29a35.18,35.18,0,0,1,8.61.88,53.41,53.41,0,0,1,6.47,1.67c9.61,3.13,17.58,10.08,25.77,15.73a140.36,140.36,0,0,0,20.5,11.62c3.53,1.65,7.12,3.18,10.75,4.62,6.19,2.47,9,3.49,12.33,9.59q7.23,13.08,14.5,26.12,3.63,6.54,7.26,13.05c1.77,3.17,3.61,8.62,6.86,10.51a11.11,11.11,0,0,0,3.63,1.12c2.74.52,8.73.48,10.4,3.13A5.3,5.3,0,0,1,517.44,354.71Z" transform="translate(-137.18 -123.89)"/><path class="cls-4" d="M533.28,365.56a13,13,0,0,1,.46,3c.49,8.11,2.17,16.44-6.76,20-22.13,8.78-43.9,17.5-65.4,26.39a14,14,0,0,1-5.86,1.46c-4.75-.25-10.63-3.66-15.08-5.32-4.75-1.78-9-4.7-13.85-6.27-2.37-.77-5.2-1.63-7.71-1-3.64.87-3.24,3.53-5.74,5.54-3.89,3.14-6-5.09-7.1-7.37l-8.9-19.39L379,342.66c-.59-1.29-1.19-2.57-1.77-3.86-.1-.21-.19-.41-.3-.61-9.85-17.46-19.9-34.82-29.92-52.18a11.79,11.79,0,0,1-1.49-3.32c-2.51-11.2,8.81-14.24,16.36-17.23,3.45-1.37,8-2.4,10.91-4.78a6.26,6.26,0,0,0,2.42-4.55c0-1.67-.44-3.28-.55-4.93-.23-3.24,1.79-5,4.93-5.17A42,42,0,0,1,390,247.09a63.14,63.14,0,0,1,7.79,2c11.57,3.77,21.17,12.14,31,18.94a169.43,169.43,0,0,0,24.67,14c4.26,2,8.58,3.82,12.94,5.56,7.45,3,10.79,4.2,14.85,11.54q8.7,15.74,17.45,31.45l8.75,15.7c2.12,3.81,4.33,10.38,8.25,12.65a13.42,13.42,0,0,0,4.36,1.35c3.3.63,10.52.57,12.53,3.76A6.26,6.26,0,0,1,533.28,365.56Z" transform="translate(-137.18 -123.89)"/><path class="cls-5" d="M549.12,376.42a15,15,0,0,1,.54,3.48c.58,9.48,2.54,19.22-7.9,23.36C516,413.5,490.48,423.7,465.28,434.11c-2.19.91-4.47,1.83-6.84,1.71-5.56-.28-12.43-4.28-17.64-6.22-5.55-2.08-10.52-5.49-16.19-7.33-2.77-.9-6.08-1.9-9-1.2-4.26,1-3.79,4.12-6.72,6.47-4.55,3.67-7.08-6-8.3-8.61l-10.41-22.67-21.41-46.62c-.69-1.51-1.39-3-2.07-4.52-.11-.24-.22-.48-.35-.71-11.52-20.42-23.26-40.71-35-61a14.22,14.22,0,0,1-1.74-3.88c-2.93-13.11,10.3-16.65,19.13-20.16,4-1.6,9.38-2.8,12.76-5.58a7.34,7.34,0,0,0,2.83-5.33c0-1.94-.51-3.83-.65-5.76-.27-3.78,2.1-5.83,5.77-6a49,49,0,0,1,12.12,1.24,75.64,75.64,0,0,1,9.11,2.35c13.52,4.4,24.74,14.19,36.27,22.14a198.18,198.18,0,0,0,28.86,16.36c5,2.32,10,4.47,15.12,6.5,8.71,3.48,12.62,4.91,17.37,13.5q10.17,18.39,20.4,36.77,5.1,9.18,10.23,18.36c2.48,4.46,5.07,12.14,9.64,14.8a16.07,16.07,0,0,0,5.11,1.57c3.86.73,12.3.67,14.65,4.4A7.49,7.49,0,0,1,549.12,376.42Z" transform="translate(-137.18 -123.89)"/><path class="cls-6" d="M565,387.27a17.2,17.2,0,0,1,.62,4c.66,10.85,2.9,22-9,26.74C527,429.7,497.88,441.38,469,453.32c-2.5,1-5.12,2.09-7.83,1.95-6.36-.32-14.23-4.89-20.19-7.12-6.36-2.37-12-6.28-18.54-8.39-3.17-1-6.95-2.18-10.31-1.37-4.88,1.17-4.34,4.72-7.69,7.41-5.21,4.2-8.1-6.81-9.5-9.86L383,410l-24.5-53.37c-.8-1.73-1.6-3.45-2.38-5.18a8.52,8.52,0,0,0-.4-.8c-13.18-23.38-26.63-46.61-40.05-69.86a16.06,16.06,0,0,1-2-4.43c-3.35-15,11.8-19.07,21.91-23.08,4.61-1.83,10.74-3.21,14.61-6.39a8.44,8.44,0,0,0,3.23-6.1c0-2.23-.58-4.38-.74-6.6-.31-4.33,2.4-6.66,6.6-6.92,4.68-.27,9.3.56,13.87,1.43a84.89,84.89,0,0,1,10.43,2.69c15.49,5,28.33,16.24,41.53,25.35a226.27,226.27,0,0,0,33,18.72c5.69,2.66,11.48,5.12,17.31,7.45,10,4,14.45,5.62,19.88,15.44q11.64,21.07,23.36,42.1,5.85,10.51,11.71,21c2.84,5.1,5.8,13.89,11,16.94a18.1,18.1,0,0,0,5.85,1.8c4.41.84,14.07.77,16.76,5A8.11,8.11,0,0,1,565,387.27Z" transform="translate(-137.18 -123.89)"/><path class="cls-7" d="M580.81,398.12a19.91,19.91,0,0,1,.69,4.49c.75,12.23,3.27,24.79-10.19,30.13-33.17,13.16-66,26.31-98.62,39.79-2.83,1.16-5.77,2.35-8.82,2.2-7.17-.37-16-5.52-22.75-8-7.16-2.67-13.56-7.07-20.88-9.45-3.57-1.15-7.84-2.45-11.62-1.55-5.49,1.32-4.89,5.32-8.66,8.35-5.87,4.73-9.12-7.67-10.7-11.1l-13.43-29.24-27.6-60.12c-.89-1.94-1.8-3.88-2.68-5.83-.14-.31-.28-.62-.44-.9-14.86-26.34-30-52.51-45.13-78.69a18.12,18.12,0,0,1-2.25-5c-3.77-16.9,13.3-21.47,24.68-26,5.19-2.06,12.1-3.62,16.46-7.2a9.47,9.47,0,0,0,3.63-6.87c.05-2.51-.65-4.94-.83-7.43-.34-4.88,2.71-7.51,7.44-7.8,5.27-.31,10.48.63,15.63,1.61a95.56,95.56,0,0,1,11.75,3c17.44,5.68,31.91,18.3,46.77,28.55a256.43,256.43,0,0,0,37.21,21.1c6.42,3,12.93,5.76,19.51,8.38,11.23,4.48,16.27,6.33,22.39,17.4q13.11,23.73,26.31,47.42,6.59,11.85,13.19,23.68c3.2,5.75,6.54,15.65,12.44,19.08a20.24,20.24,0,0,0,6.58,2c5,.95,15.86.86,18.89,5.67A9.81,9.81,0,0,1,580.81,398.12Z" transform="translate(-137.18 -123.89)"/><path class="cls-8" d="M596.65,409a21.44,21.44,0,0,1,.77,5c.83,13.6,3.64,27.57-11.33,33.51-36.85,14.62-73.41,29.25-109.7,44.25-3.14,1.3-6.41,2.63-9.81,2.45-8-.41-17.83-6.14-25.3-8.92-8-3-15.08-7.88-23.22-10.51-4-1.29-8.72-2.74-12.93-1.73-6.1,1.47-5.43,5.92-9.62,9.29-6.54,5.26-10.16-8.53-11.91-12.35l-14.94-32.52L338,370.57c-1-2.16-2-4.32-3-6.48-.16-.35-.31-.69-.49-1-16.53-29.29-33.38-58.4-50.19-87.52a20.12,20.12,0,0,1-2.5-5.56c-4.2-18.8,14.78-23.89,27.44-28.91,5.78-2.3,13.46-4,18.31-8a10.55,10.55,0,0,0,4-7.64c.05-2.8-.72-5.5-.92-8.27-.38-5.43,3-8.35,8.27-8.67,5.86-.35,11.65.69,17.38,1.79a107.11,107.11,0,0,1,13.07,3.37c19.4,6.32,35.49,20.35,52,31.76a284.51,284.51,0,0,0,41.38,23.46c7.14,3.32,14.39,6.41,21.7,9.33,12.5,5,18.1,7,24.9,19.35q14.6,26.38,29.27,52.74,7.32,13.17,14.67,26.35c3.56,6.38,7.27,17.4,13.84,21.21a22.6,22.6,0,0,0,7.32,2.26c5.53,1.05,17.64,1,21,6.31A10.25,10.25,0,0,1,596.65,409Z" transform="translate(-137.18 -123.89)"/><path class="cls-9" d="M612.49,419.83a23.62,23.62,0,0,1,.85,5.5c.91,15,4,30.35-12.47,36.88-40.54,16.09-80.78,32.2-120.77,48.73-3.46,1.43-7.07,2.89-10.81,2.7-8.77-.45-19.63-6.76-27.84-9.83-8.78-3.28-16.62-8.67-25.58-11.57-4.37-1.42-9.6-3-14.23-1.9-6.72,1.61-6,6.51-10.59,10.22-7.2,5.8-11.18-9.39-13.12-13.6L361.5,451.17l-33.81-73.62c-1.09-2.38-2.2-4.75-3.28-7.14a11.43,11.43,0,0,0-.54-1.11c-18.19-32.25-36.74-64.29-55.26-96.36a22.16,22.16,0,0,1-2.75-6.12c-4.62-20.69,16.28-26.29,30.21-31.83,6.37-2.52,14.82-4.43,20.16-8.81a11.57,11.57,0,0,0,4.45-8.41c.06-3.08-.8-6.05-1-9.1-.43-6,3.31-9.2,9.1-9.55,6.46-.38,12.83.76,19.14,2a119,119,0,0,1,14.38,3.72c21.36,6.95,39.08,22.4,57.29,35a311.71,311.71,0,0,0,45.56,25.83C473,269.25,481,272.65,489,275.86c13.76,5.49,19.93,7.75,27.42,21.31q16.06,29.06,32.21,58.06l16.16,29c3.92,7,8,19.15,15.24,23.35a24.88,24.88,0,0,0,8.06,2.49c6.09,1.16,19.42,1.05,23.12,6.94A11.63,11.63,0,0,1,612.49,419.83Z" transform="translate(-137.18 -123.89)"/><path class="cls-10" d="M628.33,430.68a25.87,25.87,0,0,1,.93,6c1,16.34,4.37,33.12-13.62,40.26-44.21,17.55-88.15,35.14-131.84,53.2-3.78,1.56-7.71,3.15-11.79,2.94-9.58-.49-21.43-7.38-30.4-10.73-9.58-3.57-18.14-9.46-27.92-12.63-4.77-1.55-10.48-3.28-15.53-2.07-7.34,1.76-6.54,7.11-11.57,11.16-7.86,6.32-12.21-10.26-14.32-14.85l-17.94-39.08-36.91-80.37c-1.19-2.59-2.4-5.18-3.57-7.79-.19-.42-.38-.83-.6-1.21-19.86-35.21-40.11-70.19-60.32-105.19a24.32,24.32,0,0,1-3-6.68c-5-22.6,17.77-28.71,33-34.75,6.94-2.75,16.17-4.84,22-9.62a12.65,12.65,0,0,0,4.86-9.19c.06-3.35-.87-6.6-1.11-9.93-.46-6.53,3.63-10,9.94-10.42,7-.42,14,.83,20.89,2.14a130.27,130.27,0,0,1,15.71,4.06c23.32,7.59,42.66,24.46,62.53,38.17a341.35,341.35,0,0,0,49.74,28.19c8.58,4,17.29,7.71,26.08,11.22,15,6,21.75,8.46,29.93,23.25Q541,328.5,558.64,360.16l17.64,31.67c4.28,7.67,8.74,20.91,16.63,25.49,2.67,1.55,5.77,2.15,8.8,2.72,6.66,1.26,21.2,1.15,25.25,7.58A12.91,12.91,0,0,1,628.33,430.68Z" transform="translate(-137.18 -123.89)"/><path class="cls-11" d="M644.18,441.54a28.88,28.88,0,0,1,1,6.51c1.07,17.71,4.73,35.9-14.77,43.64-47.89,19-95.53,38.08-142.91,57.66-4.1,1.7-8.36,3.42-12.79,3.19-10.38-.53-23.23-8-33-11.62-10.39-3.88-19.66-10.26-30.26-13.7-5.18-1.67-11.36-3.56-16.84-2.24-8,1.9-7.09,7.7-12.54,12.09C373.61,543.93,368.9,526,366.61,521l-19.45-42.36-40-87.12c-1.29-2.81-2.6-5.62-3.87-8.45-.21-.45-.41-.89-.65-1.31-21.53-38.16-43.48-76.08-65.39-114a26.22,26.22,0,0,1-3.25-7.25c-5.47-24.49,19.26-31.11,35.75-37.66,7.53-3,17.53-5.24,23.85-10.44,2.94-2.41,5.21-6.06,5.27-10,.06-3.64-.94-7.16-1.2-10.77-.5-7.07,3.93-10.88,10.77-11.29,7.64-.46,15.18.9,22.65,2.32a138.48,138.48,0,0,1,17,4.4c25.28,8.23,46.24,26.51,67.79,41.37A369.55,369.55,0,0,0,469.8,259c9.3,4.33,18.74,8.35,28.27,12.15,16.28,6.49,23.58,9.17,32.44,25.21q19,34.39,38.12,68.71,9.55,17.18,19.12,34.33c4.64,8.32,9.48,22.67,18,27.63,2.89,1.68,6.25,2.33,9.54,2.95,7.21,1.37,23,1.25,27.37,8.22A13.77,13.77,0,0,1,644.18,441.54Z" transform="translate(-137.18 -123.89)"/><path class="cls-12" d="M660,452.39a31,31,0,0,1,1.09,7c1.16,19.09,5.1,38.69-15.91,47-51.58,20.47-102.91,41-154,62.13-4.41,1.82-9,3.68-13.78,3.44-11.18-.58-25-8.62-35.5-12.53-11.19-4.18-21.18-11.05-32.61-14.76-5.57-1.8-12.24-3.83-18.14-2.42-8.57,2.06-7.63,8.31-13.51,13-9.18,7.39-14.26-12-16.72-17.34l-21-45.65-43.1-93.86c-1.4-3-2.81-6.06-4.18-9.1-.22-.49-.45-1-.7-1.42-23.19-41.12-46.85-82-70.45-122.85a28.55,28.55,0,0,1-3.51-7.81c-5.89-26.39,20.75-33.53,38.52-40.58,8.12-3.22,18.89-5.65,25.7-11.25,3.17-2.6,5.61-6.53,5.68-10.72.07-3.92-1-7.71-1.29-11.6-.54-7.62,4.23-11.73,11.6-12.17,8.23-.49,16.36,1,24.41,2.5A149.15,149.15,0,0,1,341,178.22c27.23,8.86,49.82,28.56,73,44.58a399.17,399.17,0,0,0,58.1,32.93c10,4.67,20.19,9,30.45,13.09,17.54,7,25.41,9.89,35,27.17q20.48,37,41.07,74l20.6,37c5,9,10.21,24.42,19.43,29.78,3.11,1.81,6.73,2.5,10.28,3.17,7.77,1.47,24.76,1.34,29.48,8.85A14.77,14.77,0,0,1,660,452.39Z" transform="translate(-137.18 -123.89)"/><path class="cls-13" d="M675.86,463.24a33.3,33.3,0,0,1,1.17,7.52c1.24,20.46,5.46,41.47-17.06,50.41-55.25,21.93-110.28,44-165,66.6-4.73,2-9.66,3.94-14.77,3.68-12-.61-26.83-9.23-38.06-13.43-12-4.48-22.7-11.85-34.95-15.81-6-1.94-13.12-4.12-19.45-2.6-9.19,2.21-8.18,8.9-14.48,14-9.84,7.92-15.28-12.83-17.92-18.58l-22.47-48.93-46.2-100.62c-1.49-3.25-3-6.49-4.48-9.75-.24-.53-.48-1-.75-1.52-24.86-44.07-50.21-87.87-75.52-131.69a30.63,30.63,0,0,1-3.76-8.36c-6.31-28.29,22.25-35.94,41.3-43.5,8.69-3.46,20.25-6.06,27.54-12.06,3.39-2.79,6-7,6.09-11.49.07-4.21-1.09-8.27-1.39-12.44-.58-8.17,4.54-12.57,12.44-13,8.83-.53,17.54,1,26.16,2.68a160.7,160.7,0,0,1,19.66,5.08c29.19,9.5,53.41,30.62,78.29,47.78a426.39,426.39,0,0,0,62.27,35.3c10.74,5,21.64,9.65,32.64,14,18.81,7.49,27.24,10.59,37.48,29.12q21.95,39.7,44,79.35l22.08,39.65c5.36,9.61,10.95,26.18,20.83,31.92,3.34,1.94,7.22,2.69,11,3.4,8.33,1.58,26.54,1.44,31.61,9.49A15.67,15.67,0,0,1,675.86,463.24Z" transform="translate(-137.18 -123.89)"/><path class="cls-14" d="M691.7,474.1a34.75,34.75,0,0,1,1.25,8c1.32,21.83,5.83,44.25-18.2,53.79C615.82,559.3,557.1,582.8,498.62,607c-5.05,2.09-10.3,4.21-15.76,3.93-12.79-.65-28.63-9.85-40.61-14.33C429.45,591.8,418,583.93,405,579.7c-6.37-2.07-14-4.39-20.75-2.77-9.8,2.35-8.73,9.5-15.45,14.91-10.5,8.45-16.31-13.7-19.13-19.83l-24-52.21-49.3-107.37c-1.59-3.47-3.21-6.93-4.78-10.41-.25-.56-.51-1.11-.8-1.62-26.53-47-53.58-93.76-80.58-140.52a32.26,32.26,0,0,1-4-8.93c-6.74-30.18,23.73-38.35,44.06-46.42,9.28-3.68,21.61-6.46,29.39-12.86,3.62-3,6.42-7.48,6.5-12.26.08-4.49-1.17-8.83-1.48-13.27-.62-8.72,4.84-13.42,13.27-13.92,9.42-.57,18.71,1.11,27.92,2.86a170.28,170.28,0,0,1,21,5.42c31.15,10.14,57,32.67,83.55,51a456.78,456.78,0,0,0,66.44,37.67c11.46,5.34,23.09,10.29,34.84,15,20.06,8,29.06,11.31,40,31.07q23.43,42.39,47,84.68,11.77,21.17,23.56,42.31c5.72,10.25,11.68,27.94,22.22,34.06,3.57,2.07,7.71,2.87,11.76,3.63,8.89,1.69,28.32,1.53,33.73,10.12A17.13,17.13,0,0,1,691.7,474.1Z" transform="translate(-137.18 -123.89)"/><path class="cls-15" d="M707.54,485a37,37,0,0,1,1.33,8.53c1.41,23.2,6.2,47-19.34,57.17-62.61,24.85-125,49.83-187.21,75.53-5.36,2.22-10.95,4.47-16.74,4.18-13.6-.7-30.43-10.48-43.17-15.23-13.6-5.08-25.75-13.44-39.64-17.94-6.78-2.2-14.88-4.66-22.06-2.94-10.42,2.5-9.27,10.09-16.42,15.84C353.13,619.07,347,595.53,344,589l-25.48-55.5-52.4-114.11c-1.69-3.69-3.41-7.37-5.08-11.07-.27-.59-.54-1.17-.85-1.72C232,356.64,203.2,307,174.5,257.27c-1.74-3-3.5-6.09-4.26-9.49-7.16-32.08,25.23-40.76,46.83-49.34,9.87-3.91,23-6.87,31.24-13.67,3.85-3.16,6.82-8,6.91-13,.08-4.77-1.24-9.38-1.58-14.11-.65-9.27,5.15-14.26,14.11-14.8,10-.59,19.89,1.18,29.67,3a182.44,182.44,0,0,1,22.3,5.76c33.11,10.77,60.57,34.72,88.79,54.19a484.21,484.21,0,0,0,70.63,40c12.17,5.67,24.54,10.94,37,15.92,21.33,8.5,30.89,12,42.5,33q24.9,45,49.93,90l25,45c6.07,10.9,12.41,29.69,23.61,36.2,3.79,2.2,8.19,3,12.5,3.87,9.44,1.78,30.1,1.62,35.85,10.75A17.85,17.85,0,0,1,707.54,485Z" transform="translate(-137.18 -123.89)"/><path class="cls-16" d="M723.39,495.8a39.62,39.62,0,0,1,1.4,9c1.49,24.57,6.57,49.81-20.49,60.55C638,591.7,571.9,618.16,506,645.38c-5.68,2.35-11.6,4.75-17.74,4.43-14.4-.74-32.23-11.09-45.72-16.13-14.4-5.38-27.27-14.23-42-19-7.18-2.32-15.76-4.94-23.36-3.11-11,2.64-9.83,10.69-17.4,16.78C348,637.86,341.47,612.93,338.3,606l-27-58.77-55.5-120.86c-1.79-3.91-3.61-7.8-5.38-11.72-.28-.63-.57-1.25-.89-1.83-29.87-52.94-60.32-105.55-90.72-158.19-1.84-3.19-3.71-6.45-4.52-10.05-7.58-34,26.72-43.17,49.61-52.25,10.44-4.15,24.32-7.28,33.08-14.48,4.08-3.35,7.23-8.42,7.32-13.81.08-5.05-1.32-9.93-1.67-14.94-.7-9.81,5.45-15.1,14.94-15.67,10.6-.63,21.07,1.25,31.43,3.23a192,192,0,0,1,23.61,6.1c35.07,11.41,64.16,36.78,94.05,57.4a514.14,514.14,0,0,0,74.8,42.4c12.89,6,26,11.59,39.21,16.86,22.59,9,32.72,12.73,45,35q26.35,47.7,52.88,95.33l26.53,47.62c6.43,11.54,13.14,31.45,25,38.34,4,2.33,8.67,3.23,13.23,4.1,10,1.89,31.88,1.72,38,11.39A19,19,0,0,1,723.39,495.8Z" transform="translate(-137.18 -123.89)"/><path class="cls-17" d="M739.23,506.66a41.7,41.7,0,0,1,1.48,9.53c1.58,25.95,6.93,52.6-21.63,63.94-70,27.76-139.78,55.7-209.35,84.46-6,2.48-12.24,5-18.73,4.67-15.21-.77-34-11.71-48.27-17-15.21-5.68-28.79-15-44.33-20.06-7.58-2.45-16.64-5.21-24.66-3.29-11.66,2.8-10.38,11.29-18.37,17.72-12.48,10-19.38-16.28-22.73-23.57l-28.5-62L245.55,433.36,239.86,421c-.29-.67-.6-1.31-.94-1.93q-47.85-83.54-95.78-167c-1.95-3.37-3.92-6.81-4.77-10.61-8-35.88,28.21-45.58,52.37-55.17,11-4.38,25.68-7.69,34.93-15.29,4.31-3.54,7.63-8.89,7.73-14.58.09-5.33-1.39-10.48-1.76-15.77-.74-10.36,5.75-16,15.77-16.55,11.2-.67,22.24,1.32,33.18,3.41a204.16,204.16,0,0,1,24.94,6.43c37,12.06,67.73,38.84,99.29,60.61a541.46,541.46,0,0,0,79,44.77c13.62,6.35,27.45,12.24,41.4,17.81,23.85,9.5,34.55,13.43,47.53,36.93q27.84,50.37,55.84,100.65,14,25.14,28,50.28c6.79,12.19,13.88,33.21,26.41,40.48,4.23,2.47,9.15,3.41,14,4.33,10.56,2,33.66,1.81,40.09,12A19.89,19.89,0,0,1,739.23,506.66Z" transform="translate(-137.18 -123.89)"/></svg>