<svg id="Layer_1" data-name="Layer 1" xmlns="http://www.w3.org/2000/svg" viewBox="0 0 813.85 546.63"><defs><style>.cls-1,.cls-10,.cls-11,.cls-12,.cls-13,.cls-14,.cls-15,.cls-16,.cls-17,.cls-2,.cls-3,.cls-4,.cls-5,.cls-6,.cls-7,.cls-8,.cls-9{fill:none;stroke:#82c7bc;stroke-miterlimit:10;}.cls-1{stroke-width:0.5px;}.cls-2{stroke-width:0.47px;}.cls-3{stroke-width:0.45px;}.cls-4{stroke-width:0.42px;}.cls-5{stroke-width:0.4px;}.cls-6{stroke-width:0.38px;}.cls-7{stroke-width:0.35px;}.cls-8{stroke-width:0.33px;}.cls-9{stroke-width:0.3px;}.cls-10{stroke-width:0.28px;}.cls-11{stroke-width:0.25px;}.cls-12{stroke-width:0.23px;}.cls-13{stroke-width:0.2px;}.cls-14{stroke-width:0.17px;}.cls-15{stroke-width:0.15px;}.cls-16{stroke-width:0.13px;}.cls-17{stroke-width:0.1px;}</style></defs><title>Untitled-2</title><path class="cls-1" d="M385.11,332.87a5,5,0,0,0-.31,1.46c-.32,4-1.43,8.11,4.48,9.86,14.92,4.41,29.3,8.7,43.3,13a11.55,11.55,0,0,0,3.88.72c3.14-.12,7-1.8,10-2.62,3.15-.88,6-2.32,9.17-3.09a12.9,12.9,0,0,1,5.1-.51c2.41.43,2.15,1.74,3.8,2.73,2.58,1.55,4-2.51,4.7-3.63l5.9-9.56,12.12-19.67,1.18-1.91a2.9,2.9,0,0,1,.19-.29q9.9-12.89,19.81-25.74a5.1,5.1,0,0,0,1-1.64c1.66-5.53-5.83-7-10.83-8.5-2.28-.67-5.32-1.18-7.23-2.35a3,3,0,0,1-1.6-2.25,20.08,20.08,0,0,1,.37-2.43c.15-1.6-1.19-2.46-3.27-2.55a37.41,37.41,0,0,0-6.86.52c-1.74.25-3.47.59-5.16,1-7.66,1.86-14,6-20.54,9.34a125.16,125.16,0,0,1-16.33,6.9c-2.82,1-5.68,1.89-8.57,2.75-4.93,1.46-7.14,2.07-9.83,5.69q-5.76,7.75-11.55,15.51l-5.79,7.75c-1.41,1.88-2.88,5.11-5.47,6.24a11.19,11.19,0,0,1-2.89.66c-2.18.31-7,.28-8.29,1.86A2.63,2.63,0,0,0,385.11,332.87Z" transform="translate(-40.15 -123.3)"/><path class="cls-2" d="M363.8,343.74a6.42,6.42,0,0,0-.41,2c-.44,5.37-1.93,10.89,6,13.24,19.88,5.87,39.22,11.65,58.2,17.49a15.81,15.81,0,0,0,5.2,1c4.23-.16,9.46-2.43,13.42-3.53,4.23-1.17,8-3.11,12.33-4.15a17.42,17.42,0,0,1,6.86-.68c3.24.57,2.88,2.33,5.1,3.67,3.47,2.08,5.39-3.38,6.32-4.89L484.75,355,501,328.56c.53-.85,1.06-1.7,1.58-2.56.09-.14.17-.27.27-.4,8.78-11.6,17.7-23.08,26.62-34.59a7.32,7.32,0,0,0,1.33-2.2c2.23-7.43-7.84-9.44-14.56-11.42-3.07-.91-7.14-1.6-9.71-3.17a4,4,0,0,1-2.15-3,30.73,30.73,0,0,1,.49-3.27c.2-2.14-1.6-3.3-4.39-3.42a49.79,49.79,0,0,0-9.22.7,69.5,69.5,0,0,0-6.93,1.34c-10.29,2.49-18.83,8-27.61,12.55a171.19,171.19,0,0,1-21.95,9.27c-3.79,1.31-7.63,2.53-11.51,3.69-6.63,2-9.61,2.78-13.22,7.65q-7.74,10.43-15.52,20.84L386.77,331c-1.88,2.53-3.85,6.88-7.34,8.39a14.84,14.84,0,0,1-3.88.89c-2.94.42-9.36.38-11.15,2.49A3.9,3.9,0,0,0,363.8,343.74Z" transform="translate(-40.15 -123.3)"/><path class="cls-3" d="M342.49,354.62a8.13,8.13,0,0,0-.52,2.48c-.55,6.75-2.42,13.68,7.55,16.63,24.83,7.34,49.15,14.59,73.09,22a19.88,19.88,0,0,0,6.54,1.21c5.31-.2,11.88-3,16.86-4.43,5.31-1.47,10.05-3.9,15.48-5.21,2.64-.64,5.81-1.36,8.61-.86,4.07.73,3.62,2.94,6.41,4.61,4.36,2.61,6.77-4.23,7.94-6.13l9.95-16.14,20.46-33.2c.66-1.07,1.33-2.14,2-3.21a4.45,4.45,0,0,1,.33-.51c11-14.56,22.24-29,33.44-43.44a9.15,9.15,0,0,0,1.67-2.76c2.8-9.33-9.85-11.86-18.29-14.35-3.85-1.14-9-2-12.2-4a5,5,0,0,1-2.69-3.79,35.56,35.56,0,0,1,.61-4.1c.26-2.7-2-4.15-5.51-4.3a62.23,62.23,0,0,0-11.58.88c-2.95.42-5.86,1-8.71,1.68-12.92,3.13-23.65,10.1-34.67,15.76a214.66,214.66,0,0,1-27.57,11.65c-4.76,1.65-9.58,3.18-14.46,4.63-8.32,2.47-12.06,3.49-16.59,9.6q-9.72,13.11-19.5,26.18l-9.78,13.08c-2.37,3.17-4.84,8.64-9.22,10.53a19.21,19.21,0,0,1-4.88,1.13c-3.68.52-11.75.47-14,3.12A4.51,4.51,0,0,0,342.49,354.62Z" transform="translate(-40.15 -123.3)"/><path class="cls-4" d="M321.17,365.5a9.9,9.9,0,0,0-.62,3c-.66,8.12-2.91,16.47,9.09,20,29.78,8.8,59.07,17.54,88,26.45a24.11,24.11,0,0,0,7.87,1.46c6.4-.24,14.3-3.67,20.29-5.33,6.39-1.78,12.1-4.71,18.63-6.28,3.19-.77,7-1.64,10.37-1,4.9.87,4.36,3.53,7.72,5.54,5.25,3.15,8.15-5.09,9.55-7.38l12-19.43,24.63-39.95q1.2-1.94,2.39-3.88a4.81,4.81,0,0,1,.4-.6c13.27-17.54,26.76-34.9,40.25-52.3a10.86,10.86,0,0,0,2-3.32c3.36-11.23-11.86-14.27-22-17.28-4.63-1.37-10.79-2.4-14.68-4.78-1.81-1.11-3.2-2.78-3.24-4.57s.58-3.28.74-4.94c.3-3.24-2.42-5-6.64-5.18a75.48,75.48,0,0,0-13.94,1.07,106.55,106.55,0,0,0-10.48,2c-15.56,3.77-28.47,12.16-41.73,19a258,258,0,0,1-33.2,14c-5.72,2-11.54,3.83-17.4,5.58-10,3-14.52,4.2-20,11.56q-11.7,15.76-23.47,31.51l-11.77,15.75c-2.85,3.81-5.83,10.4-11.1,12.67a23.29,23.29,0,0,1-5.87,1.36c-4.44.62-14.15.57-16.85,3.76A5.77,5.77,0,0,0,321.17,365.5Z" transform="translate(-40.15 -123.3)"/><path class="cls-5" d="M299.86,376.37a11.43,11.43,0,0,0-.72,3.49c-.78,9.5-3.41,19.26,10.63,23.41,34.72,10.27,69,20.49,102.88,30.92a27.88,27.88,0,0,0,9.2,1.72c7.48-.29,16.72-4.29,23.73-6.24,7.47-2.08,14.15-5.5,21.78-7.34,3.73-.9,8.18-1.91,12.12-1.21,5.73,1,5.1,4.13,9,6.49,6.13,3.68,9.53-6,11.17-8.63l14-22.72,28.8-46.72c.93-1.51,1.88-3,2.79-4.53.15-.25.3-.48.47-.71,15.53-20.5,31.3-40.8,47.07-61.15a12.69,12.69,0,0,0,2.35-3.88c3.93-13.14-13.87-16.69-25.74-20.2-5.42-1.6-12.62-2.81-17.17-5.6-2.12-1.29-3.75-3.25-3.8-5.33s.68-3.84.87-5.78c.36-3.79-2.83-5.84-7.76-6.06a88.65,88.65,0,0,0-16.3,1.25q-6.22.88-12.26,2.36c-18.19,4.41-33.28,14.21-48.79,22.19a302.07,302.07,0,0,1-38.82,16.39C418.7,280.81,411.9,283,405,285c-11.72,3.49-17,4.92-23.35,13.53Q368,317,354.24,335.38l-13.76,18.4c-3.34,4.47-6.82,12.16-13,14.83a27.25,27.25,0,0,1-6.86,1.58c-5.2.73-16.55.66-19.71,4.4A6.85,6.85,0,0,0,299.86,376.37Z" transform="translate(-40.15 -123.3)"/><path class="cls-6" d="M278.55,387.25a13.46,13.46,0,0,0-.83,4c-.89,10.87-3.9,22,12.17,26.79,39.67,11.73,78.9,23.43,117.77,35.4,3.38,1,6.89,2.1,10.54,2,8.56-.33,19.14-4.91,27.16-7.14,8.56-2.38,16.2-6.3,24.94-8.4,4.26-1,9.36-2.19,13.88-1.38,6.55,1.17,5.83,4.73,10.33,7.42,7,4.21,10.9-6.82,12.79-9.88l16-26,33-53.49c1.06-1.73,2.14-3.45,3.19-5.19.17-.27.34-.55.53-.8,17.78-23.48,35.84-46.71,53.89-70a14.45,14.45,0,0,0,2.68-4.45c4.51-15-15.87-19.11-29.46-23.13-6.21-1.83-14.45-3.22-19.66-6.4-2.42-1.49-4.29-3.73-4.34-6.11s.78-4.4,1-6.61c.41-4.35-3.23-6.69-8.88-6.94a100.23,100.23,0,0,0-18.66,1.43c-4.75.67-9.44,1.58-14,2.7-20.83,5.05-38.11,16.27-55.86,25.4a344.1,344.1,0,0,1-44.44,18.76q-11.49,4-23.29,7.46c-13.42,4-19.43,5.63-26.74,15.48q-15.66,21.12-31.41,42.19l-15.76,21.07c-3.82,5.11-7.81,13.92-14.86,17a30.78,30.78,0,0,1-7.86,1.81c-5.94.84-18.94.76-22.55,5A7.45,7.45,0,0,0,278.55,387.25Z" transform="translate(-40.15 -123.3)"/><path class="cls-7" d="M257.24,398.13a15.18,15.18,0,0,0-.94,4.5c-1,12.25-4.39,24.83,13.71,30.18,44.63,13.2,88.83,26.38,132.67,39.88,3.8,1.17,7.76,2.36,11.87,2.21,9.64-.37,21.57-5.53,30.59-8,9.64-2.69,18.25-7.1,28.1-9.48,4.8-1.15,10.54-2.46,15.63-1.55,7.38,1.32,6.57,5.33,11.64,8.37,7.91,4.74,12.28-7.69,14.4-11.13L533,423.77l37.14-60.25c1.2-1.94,2.41-3.88,3.6-5.84.19-.31.38-.62.6-.91,20-26.44,40.36-52.61,60.7-78.85a16.67,16.67,0,0,0,3-5c5.08-16.94-17.88-21.52-33.19-26.05-7-2.07-16.27-3.63-22.14-7.22-2.73-1.67-4.83-4.2-4.89-6.88-.06-2.52.88-4.95,1.11-7.45.47-4.89-3.64-7.53-10-7.81-7.09-.32-14.09.62-21,1.61-5.35.76-10.63,1.78-15.8,3-23.47,5.69-42.93,18.33-62.93,28.61a389.23,389.23,0,0,1-50.05,21.14c-8.63,3-17.4,5.78-26.24,8.4-15.12,4.49-21.89,6.35-30.12,17.44q-17.65,23.77-35.39,47.52L309.62,369c-4.3,5.75-8.8,15.68-16.74,19.11a34.75,34.75,0,0,1-8.85,2c-6.7.94-21.34.86-25.41,5.68A8.68,8.68,0,0,0,257.24,398.13Z" transform="translate(-40.15 -123.3)"/><path class="cls-8" d="M235.93,409a16.41,16.41,0,0,0-1,5c-1.12,13.62-4.89,27.62,15.24,33.57,49.58,14.66,98.75,29.32,147.57,44.36,4.23,1.3,8.63,2.63,13.2,2.45,10.72-.41,24-6.15,34-8.94,10.72-3,20.29-7.89,31.24-10.54,5.35-1.29,11.73-2.73,17.39-1.72,8.21,1.46,7.31,5.92,12.95,9.3,8.8,5.28,13.66-8.55,16-12.38l20.09-32.58,41.3-67c1.34-2.16,2.69-4.32,4-6.49.21-.35.42-.69.66-1,22.27-29.4,44.9-58.52,67.52-87.7a18.38,18.38,0,0,0,3.36-5.57c5.65-18.84-19.88-23.94-36.92-29-7.77-2.3-18.1-4-24.62-8-3-1.86-5.38-4.67-5.45-7.66-.06-2.8,1-5.51,1.25-8.28.51-5.44-4.06-8.38-11.13-8.69-7.88-.35-15.67.69-23.38,1.79-6,.84-11.82,2-17.58,3.38-26.1,6.33-47.74,20.39-70,31.82A429.87,429.87,0,0,1,416,268.6c-9.6,3.34-19.35,6.43-29.19,9.35-16.81,5-24.35,7.06-33.5,19.4q-19.62,26.44-39.36,52.85l-19.74,26.4C289.4,383,284.4,394,275.57,397.86a38.28,38.28,0,0,1-9.85,2.27c-7.44,1.05-23.72,1-28.26,6.32A9.76,9.76,0,0,0,235.93,409Z" transform="translate(-40.15 -123.3)"/><path class="cls-9" d="M214.62,419.88a18.13,18.13,0,0,0-1.15,5.51c-1.22,15-5.38,30.41,16.78,37,54.53,16.11,108.67,32.26,162.46,48.83,4.66,1.43,9.51,2.89,14.54,2.7,11.8-.45,26.41-6.77,37.46-9.85,11.8-3.28,22.35-8.69,34.4-11.6,5.88-1.42,12.91-3,19.14-1.9,9.05,1.62,8.05,6.53,14.26,10.25,9.68,5.8,15-9.42,17.64-13.63l22.11-35.88,45.47-73.77c1.47-2.39,3-4.76,4.41-7.16.24-.38.47-.76.74-1.11,24.51-32.38,49.42-64.43,74.33-96.56a20.14,20.14,0,0,0,3.7-6.14c6.22-20.74-21.89-26.35-40.64-31.89-8.56-2.53-19.93-4.44-27.11-8.84-3.34-2-5.92-5.14-6-8.43-.07-3.08,1.08-6.06,1.37-9.12.57-6-4.46-9.22-12.25-9.56-8.68-.39-17.25.76-25.74,2-6.55.92-13,2.18-19.35,3.72-28.74,7-52.57,22.45-77.06,35a475.3,475.3,0,0,1-61.29,25.88c-10.57,3.67-21.3,7.07-32.13,10.29-18.51,5.5-26.81,7.77-36.89,21.35q-21.6,29.13-43.33,58.19l-21.73,29.07c-5.27,7.05-10.77,19.2-20.5,23.41-3.28,1.42-7.1,2-10.84,2.49-8.2,1.16-26.12,1.06-31.11,7A10.36,10.36,0,0,0,214.62,419.88Z" transform="translate(-40.15 -123.3)"/><path class="cls-10" d="M193.31,430.76a20.15,20.15,0,0,0-1.26,6c-1.33,16.38-5.87,33.2,18.33,40.36,59.47,17.58,118.58,35.21,177.35,53.3,5.08,1.57,10.38,3.16,15.87,3,12.88-.49,28.83-7.39,40.89-10.75,12.89-3.58,24.4-9.48,37.56-12.66,6.42-1.55,14.09-3.29,20.9-2.07,9.87,1.76,8.78,7.12,15.56,11.18,10.57,6.34,16.42-10.27,19.25-14.88L561.9,465l49.65-80.54c1.6-2.6,3.23-5.19,4.81-7.81.26-.42.51-.83.8-1.22,26.77-35.34,54-70.33,81.15-105.41,1.65-2.13,3.32-4.3,4-6.7,6.78-22.64-23.9-28.76-44.37-34.82-9.35-2.76-21.76-4.85-29.6-9.65-3.64-2.23-6.46-5.61-6.54-9.2-.08-3.36,1.17-6.61,1.49-9.95.62-6.54-4.87-10.07-13.36-10.44-9.49-.43-18.85.83-28.11,2.14-7.15,1-14.21,2.39-21.13,4.07-31.36,7.6-57.38,24.51-84.12,38.25A519.38,519.38,0,0,1,409.7,262c-11.53,4-23.25,7.72-35.08,11.23-20.2,6-29.26,8.48-40.26,23.31q-23.58,31.79-47.31,63.52l-23.72,31.74c-5.76,7.69-11.76,21-22.38,25.55-3.59,1.55-7.75,2.15-11.83,2.73-9,1.26-28.52,1.14-34,7.59A11.18,11.18,0,0,0,193.31,430.76Z" transform="translate(-40.15 -123.3)"/><path class="cls-11" d="M172,441.63a21.67,21.67,0,0,0-1.35,6.53c-1.45,17.74-6.37,36,19.86,43.74,64.42,19,128.51,38.15,192.25,57.78,5.51,1.7,11.24,3.42,17.2,3.2,14-.54,31.25-8,44.33-11.65,14-3.89,26.44-10.28,40.71-13.73,7-1.68,15.28-3.56,22.65-2.25,10.7,1.91,9.53,7.72,16.87,12.13,11.46,6.87,17.8-11.14,20.87-16.13l26.17-42.46,53.81-87.3c1.74-2.82,3.5-5.63,5.22-8.46a12,12,0,0,1,.87-1.32c29-38.32,58.49-76.24,88-114.27,1.78-2.3,3.6-4.66,4.38-7.26,7.35-24.54-25.91-31.18-48.1-37.74-10.13-3-23.58-5.26-32.08-10.46-4-2.42-7-6.08-7.09-10-.09-3.65,1.27-7.18,1.61-10.8.68-7.09-5.28-10.91-14.48-11.32-10.28-.45-20.43.91-30.47,2.33-7.75,1.1-15.4,2.59-22.9,4.41-34,8.24-62.21,26.57-91.19,41.46a562,562,0,0,1-72.53,30.63c-12.5,4.34-25.2,8.37-38,12.18-21.9,6.51-31.72,9.19-43.65,25.27Q299.33,330.63,273.61,365q-12.84,17.21-25.71,34.4c-6.24,8.34-12.75,22.72-24.26,27.7-3.89,1.68-8.41,2.33-12.83,3-9.7,1.36-30.91,1.24-36.81,8.23A12.18,12.18,0,0,0,172,441.63Z" transform="translate(-40.15 -123.3)"/><path class="cls-12" d="M150.68,452.51a23.39,23.39,0,0,0-1.46,7c-1.56,19.12-6.86,38.77,21.4,47.13,69.38,20.51,138.43,41.1,207.14,62.26,5.94,1.83,12.12,3.69,18.54,3.44,15.05-.57,33.67-8.63,47.76-12.55,15.05-4.19,28.49-11.08,43.86-14.79,7.5-1.81,16.47-3.84,24.41-2.42,11.53,2.06,10.27,8.32,18.18,13.06,12.35,7.4,19.17-12,22.49-17.38l28.19-45.74,58-94.07c1.88-3,3.77-6.06,5.62-9.12.3-.49.6-1,.94-1.42,31.26-41.28,63-82.15,94.78-123.12,1.92-2.48,3.88-5,4.72-7.82,7.92-26.44-27.92-33.6-51.83-40.67-10.91-3.23-25.41-5.66-34.56-11.27-4.26-2.6-7.55-6.55-7.65-10.74-.09-3.93,1.38-7.73,1.75-11.63.72-7.64-5.69-11.76-15.61-12.2-11.08-.49-22,1-32.83,2.51-8.35,1.19-16.6,2.79-24.68,4.75-36.63,8.88-67,28.63-98.25,44.67a604.69,604.69,0,0,1-78.15,33c-13.47,4.68-27.15,9-41,13.12-23.6,7-34.18,9.9-47,27.22q-27.56,37.14-55.26,74.2L232.47,407c-6.73,9-13.74,24.48-26.14,29.84-4.19,1.82-9.06,2.52-13.82,3.19-10.46,1.47-33.31,1.34-39.67,8.86A13.36,13.36,0,0,0,150.68,452.51Z" transform="translate(-40.15 -123.3)"/><path class="cls-13" d="M129.37,463.39a25.11,25.11,0,0,0-1.57,7.53c-1.67,20.5-7.35,41.56,22.94,50.52,74.33,22,148.35,44,222,66.74,6.36,2,13,4,19.87,3.69,16.13-.62,36.09-9.26,51.2-13.46,16.13-4.49,30.53-11.87,47-15.85,8-1.94,17.65-4.12,26.16-2.6,12.36,2.21,11,8.92,19.49,14,13.23,7.94,20.55-12.86,24.1-18.62l30.23-49L653,405.47c2-3.25,4-6.5,6-9.77a17.58,17.58,0,0,1,1-1.53c33.5-44.25,67.55-88.05,101.59-132,2.06-2.66,4.15-5.38,5-8.38,8.5-28.35-29.92-36-55.55-43.59-11.69-3.46-27.23-6.07-37.05-12.08-4.56-2.8-8.09-7-8.19-11.52-.1-4.21,1.47-8.29,1.87-12.46.78-8.19-6.1-12.61-16.73-13.08-11.88-.53-23.59,1-35.19,2.69-9,1.27-17.79,3-26.45,5.09-39.27,9.52-71.84,30.68-105.32,47.89a649.14,649.14,0,0,1-83.76,35.37c-14.45,5-29.12,9.67-43.92,14.07-25.29,7.51-36.63,10.61-50.41,29.18q-29.52,39.8-59.22,79.53L217,414.63c-7.2,9.64-14.72,26.25-28,32-4.49,1.94-9.71,2.69-14.82,3.41-11.2,1.58-35.7,1.44-42.52,9.5A14.33,14.33,0,0,0,129.37,463.39Z" transform="translate(-40.15 -123.3)"/><path class="cls-14" d="M108.06,474.26a27,27,0,0,0-1.67,8c-1.79,21.88-7.85,44.35,24.48,53.91,79.27,23.44,158.27,47,236.93,71.21,6.79,2.09,13.86,4.22,21.2,3.94,17.21-.65,38.51-9.87,54.63-14.36,17.21-4.78,32.59-12.67,50.17-16.91,8.58-2.07,18.83-4.4,27.92-2.77,13.18,2.35,11.74,9.51,20.79,14.94,14.12,8.47,21.93-13.73,25.72-19.88l32.25-52.32L666.8,412.47c2.14-3.48,4.31-6.94,6.43-10.44a18.15,18.15,0,0,1,1.07-1.62c35.76-47.22,72.08-94,108.4-140.82,2.21-2.85,4.44-5.75,5.4-8.95,9.07-30.25-31.93-38.43-59.27-46.52-12.49-3.69-29.07-6.48-39.54-12.89-4.87-3-8.63-7.49-8.74-12.29-.1-4.5,1.57-8.84,2-13.3.83-8.74-6.51-13.44-17.85-13.95-12.67-.56-25.18,1.11-37.56,2.87-9.54,1.36-19,3.19-28.22,5.43-41.9,10.16-76.66,32.74-112.38,51.1a692.62,692.62,0,0,1-89.38,37.75c-15.41,5.35-31.07,10.32-46.86,15-27,8-39.1,11.33-53.79,31.14Q265,337.46,233.3,379.85l-31.7,42.39c-7.68,10.28-15.71,28-29.89,34.14-4.79,2.07-10.36,2.87-15.81,3.64-12,1.69-38.1,1.53-45.37,10.14A15,15,0,0,0,108.06,474.26Z" transform="translate(-40.15 -123.3)"/><path class="cls-15" d="M86.75,485.14A28.42,28.42,0,0,0,85,493.69c-1.9,23.24-8.34,47.13,26,57.29,84.22,24.9,168.19,49.94,251.82,75.69,7.22,2.22,14.74,4.49,22.53,4.19,18.3-.7,40.94-10.5,58.07-15.26,18.3-5.09,34.64-13.47,53.33-18,9.11-2.2,20-4.67,29.67-3,14,2.51,12.48,10.12,22.1,15.88,15,9,23.31-14.59,27.34-21.12l34.27-55.61,70.49-114.36c2.28-3.7,4.59-7.38,6.84-11.09a18.45,18.45,0,0,1,1.14-1.73c38-50.19,76.61-99.87,115.21-149.67,2.35-3,4.72-6.11,5.74-9.51,9.64-32.15-33.93-40.85-63-49.44-13.27-3.93-30.89-6.89-42-13.7-5.18-3.17-9.18-8-9.29-13.07-.11-4.78,1.66-9.39,2.11-14.13.89-9.29-6.91-14.29-19-14.83-13.47-.6-26.76,1.18-39.92,3.05-10.14,1.44-20.17,3.39-30,5.77C563.92,161.91,527,185.91,489,205.42a735.85,735.85,0,0,1-95,40.12c-16.38,5.69-33,11-49.81,16-28.68,8.52-41.55,12-57.17,33.09q-33.48,45.15-67.17,90.2Q203,407.32,186.17,429.85c-8.17,10.92-16.69,29.76-31.77,36.28-5.09,2.21-11,3.06-16.8,3.87-12.71,1.79-40.5,1.63-48.23,10.78A16.27,16.27,0,0,0,86.75,485.14Z" transform="translate(-40.15 -123.3)"/><path class="cls-16" d="M65.44,496a30.08,30.08,0,0,0-1.89,9.05c-2,24.62-8.83,49.92,27.56,60.68,89.17,26.36,178.11,52.88,266.72,80.17,7.64,2.35,15.6,4.75,23.86,4.43,19.38-.73,43.36-11.11,61.51-16.16,19.37-5.39,36.68-14.26,56.47-19,9.66-2.33,21.2-4.95,31.43-3.12,14.85,2.65,13.22,10.71,23.41,16.82,15.9,9.53,24.69-15.46,29-22.38l36.31-58.9,74.66-121.12c2.41-3.91,4.85-7.81,7.23-11.74a21.46,21.46,0,0,1,1.21-1.83c40.25-53.16,81.14-105.78,122-158.53,2.48-3.2,5-6.47,6.08-10.07C841.19,210.23,795,201,764.25,191.91c-14-4.16-32.72-7.29-44.51-14.51C714.26,174,710,169,709.9,163.56c-.11-5.06,1.77-9.95,2.25-15,.93-9.83-7.33-15.13-20.1-15.7-14.26-.64-28.34,1.25-42.28,3.23-10.74,1.52-21.36,3.59-31.76,6.11-47.18,11.44-86.3,36.86-126.51,57.53-31.8,16.34-65.63,30.34-100.63,42.49q-26,9-52.75,16.9c-30.39,9-44,12.75-60.55,35.05Q242.09,342,206.42,389.73q-17.82,23.86-35.68,47.72C162.09,449,153.06,469,137.09,475.88c-5.39,2.34-11.66,3.24-17.8,4.1-13.46,1.9-42.89,1.73-51.08,11.42A17.24,17.24,0,0,0,65.44,496Z" transform="translate(-40.15 -123.3)"/><path class="cls-17" d="M44.13,506.89a31.61,31.61,0,0,0-2,9.56c-2.13,26-9.33,52.71,29.09,64.07,94.13,27.83,188,55.83,281.62,84.65,8.07,2.48,16.47,5,25.19,4.68,20.46-.78,45.78-11.74,64.94-17.07,20.46-5.69,38.73-15.06,59.63-20.1,10.2-2.46,22.38-5.23,33.18-3.3,15.68,2.8,14,11.31,24.72,17.76,16.78,10.07,26.07-16.32,30.57-23.62l38.33-62.19,78.83-127.89,7.64-12.4a23,23,0,0,1,1.28-1.93C760.07,363.3,802.83,307.43,846,251.73c2.62-3.38,5.28-6.82,6.42-10.63,10.77-36-37.95-45.68-70.46-55.3-14.83-4.38-34.54-7.69-47-15.31-5.79-3.55-10.26-8.91-10.39-14.61-.12-5.35,1.87-10.51,2.37-15.81,1-10.39-7.74-16-21.22-16.58-15.06-.67-29.92,1.32-44.64,3.41-11.34,1.61-22.56,3.79-33.54,6.45-49.81,12.08-91.12,38.92-133.57,60.74-33.58,17.25-69.3,32-106.25,44.87-18.31,6.36-36.92,12.26-55.69,17.84-32.09,9.52-46.47,13.46-63.94,37Q230.65,344.29,193,394.67q-18.82,25.2-37.67,50.39c-9.14,12.22-18.67,33.28-35.53,40.57-5.7,2.47-12.31,3.42-18.79,4.34-14.21,2-45.29,1.82-53.93,12A18,18,0,0,0,44.13,506.89Z" transform="translate(-40.15 -123.3)"/></svg>